<svg id="Layer_1" enable-background="new 0 0 128 128" height="512" viewBox="0 0 128 128" width="512" xmlns="http://www.w3.org/2000/svg"><path d="m99 71.3h-70c0-19.3 15.7-35 35-35 1.8 0 3.7.1 5.5.4 17 2.7 29.5 17.3 29.5 34.6z" fill="#ffc900"/><path d="m64 30.5c-1 0-1.8-.8-1.8-1.8v-12c0-1 .8-1.8 1.8-1.8s1.8.8 1.8 1.8v12c0 1-.8 1.8-1.8 1.8z" fill="#ffa500"/><path d="m94.1 42.9c-1 0-1.7-.8-1.7-1.8 0-.5.2-.9.5-1.2l24.4-24.4c.7-.7 1.8-.7 2.5 0s.7 1.8 0 2.5l-24.5 24.4c-.3.4-.8.5-1.2.5z" fill="#ffa500"/><path d="m33.9 42.9c-.5 0-.9-.2-1.2-.5l-24.4-24.4c-.7-.7-.7-1.8 0-2.5s1.8-.7 2.5 0l24.4 24.5c.7.7.7 1.8 0 2.5-.3.3-.8.4-1.3.4z" fill="#ffa500"/><path d="m88.9 63.9c-.7 0-1.4-.5-1.6-1.1-2.4-6.6-7.5-11.9-14.1-14.5-.9-.4-1.3-1.4-1-2.3.4-.9 1.4-1.3 2.3-1 7.5 3 13.3 9 16.1 16.5.3.9-.1 1.9-1 2.2-.3.1-.5.2-.7.2z" fill="#fff"/><g fill="#ffa500"><path d="m118.5 69.5h-109c-1 0-1.8.8-1.8 1.8s.8 1.7 1.8 1.7h109c1 0 1.8-.8 1.8-1.8s-.8-1.7-1.8-1.7z"/><path d="m111.4 79.5h-94.8c-1 0-1.8.8-1.8 1.8s.8 1.8 1.8 1.8h94.8c1 0 1.8-.8 1.8-1.8s-.9-1.8-1.8-1.8z"/><path d="m102.6 89.5h-77.2c-1 0-1.8.8-1.8 1.8s.8 1.8 1.8 1.8h77.3c1 0 1.8-.8 1.8-1.8s-.9-1.8-1.9-1.8z"/><path d="m90 99.5h-52c-1 0-1.8.8-1.8 1.8s.8 1.7 1.8 1.7h52c1 0 1.8-.8 1.8-1.8s-.8-1.7-1.8-1.7z"/><path d="m79.1 109.5h-30.2c-1 0-1.8.8-1.8 1.8s.8 1.8 1.8 1.8h30.3c1 0 1.8-.8 1.8-1.8s-.9-1.8-1.9-1.8z"/></g></svg>