<svg width="512" height="512" viewBox="0 0 512 512" fill="none" xmlns="http://www.w3.org/2000/svg">
<path d="M255.051 39.5946V472.491C254.076 472.395 253.124 472.136 252.235 471.723C149.238 417.365 76.5336 348.16 76.5336 232.875V106.752C76.5107 104.5 77.511 102.36 79.2531 100.933C80.9951 99.5063 83.2906 98.9473 85.4936 99.4133C91.4522 100.803 97.4953 101.8 103.584 102.4C113.025 103.421 122.543 103.506 132 102.656C192.075 97.1946 235.68 56.1493 250.443 41.7279C251.68 40.4973 253.312 39.742 255.051 39.5946V39.5946Z" fill="#FFDC00"/>
<path d="M434.934 106.752V232.875C434.934 348.16 362.315 417.331 259.232 471.723C257.95 472.401 256.49 472.669 255.051 472.491V39.5946C257.267 39.3273 259.479 40.1175 261.024 41.7279C279.115 59.9893 342.176 118.699 425.974 99.4133C428.177 98.9473 430.472 99.5063 432.214 100.933C433.956 102.36 434.956 104.5 434.934 106.752V106.752Z" fill="#FF9801"/>
<path d="M379.126 102.562C319.136 97.0752 275.557 56.3967 261.024 41.7279C259.479 40.1175 257.267 39.3273 255.051 39.5946V59.5114C280.702 80.3925 324.598 107.093 379.126 102.562Z" fill="#F57C00"/>
<path d="M425.974 99.4132C419.953 100.767 413.854 101.748 407.712 102.349C408.724 103.597 409.294 105.145 409.334 106.752V232.875C409.334 340.011 346.614 407.27 255.051 459.861V472.491C256.49 472.669 257.95 472.401 259.232 471.723C362.315 417.331 434.934 348.16 434.934 232.875V106.752C434.956 104.5 433.956 102.36 432.214 100.933C430.472 99.5063 428.177 98.9472 425.974 99.4132V99.4132Z" fill="#F57C00"/>
<path d="M255.734 369.86C274.585 369.86 289.867 354.578 289.867 335.727C289.867 316.876 274.585 301.594 255.734 301.594C236.882 301.594 221.6 316.876 221.6 335.727C221.6 354.578 236.882 369.86 255.734 369.86Z" fill="#FFEB3A"/>
<path d="M255.734 301.594C251.342 301.612 246.995 302.481 242.934 304.153C255.826 309.35 264.27 321.856 264.27 335.757C264.27 349.657 255.826 362.164 242.934 367.36C255.712 372.608 270.393 369.638 280.125 359.834C289.858 350.031 292.722 335.329 287.381 322.589C282.04 309.849 269.547 301.585 255.734 301.653V301.594Z" fill="#FDD834"/>
<path d="M286.692 53.4357C283.02 50.5801 277.737 51.1925 274.814 54.8125C271.892 58.4325 272.408 63.726 275.975 66.7136C278.176 68.4885 280.497 70.3061 282.946 72.1323C285.385 73.9615 288.615 74.3506 291.418 73.153C294.222 71.9554 296.174 69.3531 296.538 66.3263C296.903 63.2995 295.625 60.3081 293.186 58.4789C290.894 56.7666 288.729 55.0855 286.692 53.4357Z" fill="black"/>
<path d="M386.02 94.3787C380.464 94.1099 374.928 93.5173 369.44 92.6037C364.842 91.9418 360.559 95.0794 359.804 99.663C359.049 104.247 362.099 108.592 366.667 109.44C372.815 110.463 379.018 111.127 385.244 111.428C389.957 111.664 393.968 108.034 394.204 103.322C394.44 98.6088 390.81 94.5972 386.097 94.3616L386.02 94.3787Z" fill="black"/>
<path d="M408.975 340.736C407.03 339.578 404.705 339.24 402.51 339.797C400.316 340.354 398.433 341.76 397.276 343.706C394.417 348.51 391.303 353.306 388 357.965C386.073 360.447 385.667 363.788 386.942 366.66C388.217 369.533 390.968 371.471 394.102 371.707C397.235 371.942 400.245 370.436 401.935 367.787C405.485 362.769 408.856 357.547 411.945 352.427C414.35 348.378 413.021 343.146 408.975 340.736Z" fill="black"/>
<path d="M330.887 99.3536C335.265 101.102 340.231 98.9702 341.98 94.592C343.728 90.2138 341.597 85.2471 337.218 83.4987C332.098 81.4592 326.978 79.104 321.858 76.4928C317.669 74.3343 312.522 75.981 310.364 80.1707C308.205 84.3604 309.852 89.5066 314.042 91.6651C319.623 94.5323 325.28 97.1093 330.887 99.3536Z" fill="black"/>
<path d="M366.343 384.367C362.423 388.537 358.372 392.59 354.191 396.527C351.976 398.623 351.048 401.741 351.756 404.707C352.463 407.673 354.7 410.037 357.622 410.907C360.545 411.777 363.71 411.022 365.924 408.926C370.339 404.762 374.623 400.475 378.776 396.066C382.006 392.633 381.842 387.231 378.409 384C374.975 380.769 369.573 380.934 366.343 384.367Z" fill="black"/>
<path d="M318.82 444.587C321.978 444.587 323.147 443.972 338.276 432.367C340.798 430.548 342.131 427.502 341.755 424.416C341.38 421.33 339.356 418.692 336.472 417.53C333.588 416.369 330.301 416.868 327.891 418.833C323.309 422.349 318.633 425.754 313.914 429.073C310.87 431.213 309.564 435.079 310.686 438.627C311.808 442.174 315.1 444.586 318.82 444.587V444.587Z" fill="black"/>
<path d="M417.013 324.267C419.13 325.07 421.478 325 423.543 324.072C425.607 323.144 427.218 321.434 428.021 319.317C430.215 313.566 432.177 307.516 433.79 301.858C434.693 298.909 433.934 295.703 431.806 293.471C429.677 291.239 426.51 290.329 423.522 291.092C420.533 291.854 418.189 294.169 417.389 297.148C415.46 303.838 413.856 308.565 412.073 313.25C411.266 315.366 411.333 317.716 412.26 319.782C413.187 321.849 414.897 323.462 417.013 324.267V324.267Z" fill="black"/>
<path d="M435.01 238.78C432.744 238.611 430.506 239.367 428.805 240.875C427.105 242.382 426.086 244.514 425.982 246.784C425.641 252.484 425.129 258.193 424.335 263.748C423.925 266.769 425.158 269.78 427.569 271.646C429.981 273.511 433.204 273.949 436.026 272.793C438.847 271.638 440.838 269.065 441.248 266.044C442.059 260.07 442.656 253.918 443.015 247.808C443.296 243.105 439.713 239.063 435.01 238.78Z" fill="black"/>
<path d="M443.467 194.244C443.467 189.531 439.646 185.711 434.933 185.711C430.221 185.711 426.4 189.531 426.4 194.244V211.925C426.4 216.638 430.221 220.459 434.933 220.459C439.646 220.459 443.467 216.638 443.467 211.925V194.244Z" fill="black"/>
<path d="M443.467 141.175C443.467 136.463 439.646 132.642 434.933 132.642C430.221 132.642 426.4 136.463 426.4 141.175V158.865C426.4 163.578 430.221 167.398 434.933 167.398C439.646 167.398 443.467 163.578 443.467 158.865V141.175Z" fill="black"/>
<path d="M424.088 91.008C422.455 91.3778 420.834 91.7163 419.224 92.0235C416.185 92.5444 413.664 94.6637 412.628 97.5674C411.592 100.471 412.203 103.708 414.227 106.034C416.25 108.36 419.37 109.414 422.39 108.791C423.849 108.51 425.308 108.22 426.614 107.938C427.733 112.278 432.018 115.012 436.425 114.199C440.832 113.386 443.859 109.302 443.356 104.849C442.832 100.365 440.444 96.3085 436.778 93.6746C433.111 91.0406 428.504 90.0727 424.088 91.008V91.008Z" fill="black"/>
<path d="M284.423 447.684L277.067 451.951C274.405 453.465 272.758 456.288 272.751 459.35C272.745 462.413 274.379 465.244 277.034 466.769C279.69 468.294 282.959 468.279 285.6 466.731L293.024 462.413C296.996 459.994 298.299 454.84 295.955 450.823C293.611 446.807 288.482 445.407 284.423 447.676V447.684Z" fill="black"/>
<path d="M224.783 53.4272C194.43 77.8752 145.986 104.252 87.3965 90.9739C82.6563 89.9376 77.7021 91.1107 73.93 94.1626C70.1578 97.2144 67.9763 101.815 68.0002 106.667V232.875C68.0002 328.533 117.084 396.314 197.084 449.399C202.588 453.043 212.273 458.88 225.858 466.739C229.936 469.058 235.121 467.65 237.466 463.588C239.811 459.526 238.438 454.332 234.392 451.959C221.097 444.279 211.719 438.63 206.496 435.174C132.435 386.014 84.8877 323.234 84.8877 232.875V107.904C149.63 122.052 202.392 93.3973 235.484 66.7221C239.125 63.7586 239.688 58.4106 236.745 54.7535C233.801 51.0963 228.456 50.5037 224.783 53.4272Z" fill="black"/>
<path d="M255.734 426.667C251.021 426.667 247.2 430.487 247.2 435.2V503.467C247.2 508.18 251.021 512 255.734 512C260.446 512 264.267 508.18 264.267 503.467V435.2C264.267 430.487 260.446 426.667 255.734 426.667Z" fill="black"/>
<path d="M136.267 147.994C131.554 147.994 127.734 151.814 127.734 156.527V207.727C127.734 236.004 150.657 258.927 178.934 258.927C207.211 258.927 230.134 236.004 230.134 207.727V156.527C230.134 151.814 226.313 147.994 221.6 147.994C216.887 147.994 213.067 151.814 213.067 156.527V207.727C213.067 226.578 197.785 241.86 178.934 241.86C160.082 241.86 144.8 226.578 144.8 207.727V156.527C144.8 151.814 140.98 147.994 136.267 147.994Z" fill="black"/>
<path d="M286.334 148.762C284.269 149.693 282.659 151.407 281.858 153.526C281.058 155.645 281.133 157.996 282.067 160.06L324.734 253.926C326.12 256.969 329.156 258.922 332.499 258.922C335.843 258.922 338.879 256.969 340.265 253.926L382.931 160.06C384.303 157.268 384.048 153.952 382.264 151.403C380.481 148.855 377.453 147.479 374.36 147.812C371.268 148.144 368.601 150.133 367.401 153.003L332.499 229.803L297.598 153.003C295.65 148.731 290.616 146.836 286.334 148.762V148.762Z" fill="black"/>
<path d="M213.067 335.727C213.067 359.291 232.169 378.394 255.734 378.394C279.298 378.394 298.4 359.291 298.4 335.727C298.4 312.163 279.298 293.06 255.734 293.06C232.181 293.089 213.095 312.175 213.067 335.727ZM255.734 310.127C269.872 310.127 281.334 321.588 281.334 335.727C281.334 349.865 269.872 361.327 255.734 361.327C241.595 361.327 230.134 349.865 230.134 335.727C230.134 321.588 241.595 310.127 255.734 310.127Z" fill="black"/>
<path d="M187.467 344.26H196C200.713 344.26 204.534 340.44 204.534 335.727C204.534 331.014 200.713 327.194 196 327.194H187.467C182.754 327.194 178.934 331.014 178.934 335.727C178.934 340.44 182.754 344.26 187.467 344.26Z" fill="black"/>
<path d="M306.934 335.727C306.934 340.44 310.754 344.26 315.467 344.26H324C328.713 344.26 332.534 340.44 332.534 335.727C332.534 331.014 328.713 327.194 324 327.194H315.467C310.754 327.194 306.934 331.014 306.934 335.727Z" fill="black"/>
<path d="M247.2 275.994C247.2 280.706 251.021 284.527 255.734 284.527C260.446 284.527 264.267 280.706 264.267 275.994V267.46C264.267 262.748 260.446 258.927 255.734 258.927C251.021 258.927 247.2 262.748 247.2 267.46V275.994Z" fill="black"/>
<path d="M264.267 395.46C264.267 390.748 260.446 386.927 255.734 386.927C251.021 386.927 247.2 390.748 247.2 395.46V403.994C247.2 408.706 251.021 412.527 255.734 412.527C260.446 412.527 264.267 408.706 264.267 403.994V395.46Z" fill="black"/>
<path d="M201.428 281.421C199.825 283.021 198.925 285.193 198.925 287.458C198.925 289.723 199.825 291.895 201.428 293.495L207.461 299.529C210.809 302.762 216.131 302.716 219.423 299.425C222.714 296.133 222.761 290.811 219.527 287.462L213.494 281.421C210.161 278.09 204.76 278.09 201.428 281.421V281.421Z" fill="black"/>
<path d="M304.007 392.533C307.457 392.533 310.568 390.454 311.889 387.265C313.209 384.077 312.479 380.408 310.04 377.967L304.007 371.934C300.658 368.7 295.336 368.746 292.044 372.038C288.753 375.33 288.707 380.652 291.94 384C297.453 389.504 299.458 392.533 304.007 392.533Z" fill="black"/>
<path d="M297.974 281.421L291.941 287.462C288.789 290.823 288.874 296.079 292.133 299.336C295.392 302.592 300.648 302.674 304.007 299.52L310.04 293.487C313.374 290.155 313.376 284.751 310.044 281.417C306.712 278.082 301.308 278.08 297.974 281.412V281.421Z" fill="black"/>
<path d="M207.46 392.533C211.676 392.533 212.905 390.622 219.527 384C222.761 380.652 222.714 375.33 219.423 372.038C216.131 368.746 210.809 368.7 207.46 371.934L201.427 377.967C198.988 380.408 198.258 384.077 199.578 387.265C200.899 390.454 204.01 392.533 207.46 392.533V392.533Z" fill="black"/>
<path d="M255.734 247.467C260.446 247.467 264.267 243.646 264.267 238.933V8.53333C264.267 3.8205 260.446 0 255.734 0C251.021 0 247.2 3.8205 247.2 8.53333V238.933C247.2 243.646 251.021 247.467 255.734 247.467Z" fill="black"/>
</svg>
