<svg width="512" height="512" viewBox="0 0 512 512" fill="none" xmlns="http://www.w3.org/2000/svg">
<path d="M256 425.475C260.143 425.475 263.5 422.118 263.5 417.975V397.093C296.817 395.342 327.109 381.993 350.414 361.021L365.23 375.837C368.16 378.765 372.909 378.767 375.837 375.837C378.765 372.907 378.766 368.159 375.837 365.23L361.021 350.414C381.993 327.109 395.341 296.817 397.093 263.5H417.975C422.118 263.5 425.475 260.143 425.475 256C425.475 251.857 422.118 248.5 417.975 248.5H397.093C395.342 215.183 381.993 184.891 361.021 161.586L375.837 146.77C378.766 143.84 378.766 139.092 375.837 136.163C372.907 133.235 368.159 133.235 365.23 136.163L350.414 150.979C327.109 130.007 296.817 116.659 263.5 114.907V94.025C263.5 89.882 260.143 86.525 256 86.525C251.857 86.525 248.5 89.882 248.5 94.025V114.928C236.559 115.554 224.797 117.65 213.446 121.231C209.496 122.477 207.304 126.69 208.55 130.64C209.795 134.589 214.005 136.784 217.959 135.536C374.768 93.718 447.867 304.317 306.984 371.532C155.87 430.685 59.327 228.178 193.565 146.193C197.164 144.142 198.419 139.562 196.368 135.964C194.316 132.365 189.735 131.111 186.138 133.162C177.228 138.24 169.015 144.229 161.558 150.95L146.771 136.163C143.841 133.235 139.093 133.235 136.164 136.163C133.235 139.093 133.235 143.841 136.164 146.77L150.963 161.569C129.639 185.345 116.667 215.976 114.929 248.5H94.025C89.882 248.5 86.525 251.857 86.525 256C86.525 260.143 89.882 263.5 94.025 263.5H114.907C116.658 296.817 130.007 327.109 150.979 350.414L136.163 365.23C133.234 368.16 133.234 372.908 136.163 375.837C139.092 378.767 143.84 378.765 146.77 375.837L161.586 361.021C184.891 381.993 215.183 395.341 248.5 397.093V417.975C248.5 422.117 251.857 425.475 256 425.475V425.475ZM192.35 214.89C188.207 214.89 184.85 218.247 184.85 222.39V268.645C184.85 278.598 189.432 286.365 198.858 292.387C203.751 295.513 209.275 297.103 215.277 297.111H215.325C220.501 297.111 225.359 295.986 229.764 293.768C243.645 286.777 246.559 276.22 246.559 268.596V222.39C246.559 218.247 243.202 214.89 239.059 214.89C234.916 214.89 231.559 218.247 231.559 222.39V268.596C231.559 272.075 230.588 276.558 223.017 280.371C220.724 281.525 218.136 282.11 215.324 282.11H215.297C212.153 282.106 209.418 281.333 206.935 279.746C201.904 276.531 199.851 273.314 199.851 268.644V222.39C199.85 218.247 196.492 214.89 192.35 214.89V214.89ZM356.804 37.293C352.147 32.637 345.956 30.072 339.371 30.072H172.629C166.044 30.072 159.854 32.636 155.196 37.293L37.293 155.196C32.637 159.853 30.072 166.044 30.072 172.629V339.371C30.072 345.956 32.636 352.146 37.293 356.804L155.196 474.707C159.853 479.363 166.044 481.928 172.629 481.928H261.9C266.043 481.928 269.4 478.571 269.4 474.428C269.4 470.285 266.043 466.928 261.9 466.928H172.629C170.051 466.928 167.627 465.924 165.804 464.1L47.9 346.196C46.076 344.373 45.072 341.949 45.072 339.371V172.629C45.072 170.051 46.076 167.627 47.9 165.804L165.804 47.9C167.627 46.076 170.051 45.072 172.629 45.072H339.371C341.949 45.072 344.373 46.076 346.196 47.9L464.1 165.804C465.924 167.627 466.928 170.051 466.928 172.629V339.371C466.928 341.949 465.924 344.373 464.1 346.196L346.196 464.1C344.373 465.924 341.949 466.928 339.371 466.928H291.899C287.756 466.928 284.399 470.285 284.399 474.428C284.399 478.571 287.756 481.928 291.899 481.928H339.371C345.956 481.928 352.146 479.364 356.804 474.707L474.707 356.804C479.363 352.147 481.928 345.956 481.928 339.371V172.629C481.928 166.044 479.364 159.854 474.707 155.196L356.804 37.293ZM500.599 138.56L373.44 11.401C366.088 4.049 356.312 0 345.914 0H166.086C155.689 0 145.912 4.049 138.56 11.401L11.401 138.56C4.049 145.912 0 155.688 0 166.086V345.914C0 356.311 4.049 366.088 11.401 373.44L138.56 500.599C145.913 507.952 155.689 512 166.086 512H345.914C356.311 512 366.088 507.951 373.44 500.599L500.599 373.44C507.952 366.087 512 356.311 512 345.914V166.086C512 155.688 507.951 145.912 500.599 138.56V138.56ZM497 345.914C497 352.306 494.511 358.314 489.991 362.833L362.833 489.991C358.314 494.511 352.306 497 345.914 497H166.086C159.694 497 153.686 494.511 149.167 489.991L22.009 362.833C17.489 358.314 15 352.306 15 345.914V166.086C15 159.694 17.489 153.686 22.009 149.167L149.167 22.009C153.686 17.489 159.694 15 166.086 15H345.914C352.306 15 358.314 17.489 362.833 22.009L489.991 149.167C494.511 153.686 497 159.694 497 166.086V345.914ZM296.266 297.11C296.287 297.11 296.308 297.11 296.329 297.109C300.164 297.083 303.57 294.626 304.82 290.945L326.768 224.878C328.075 220.947 325.946 216.702 322.015 215.397C318.087 214.091 313.839 216.218 312.534 220.15L296.142 269.491L278.939 219.931C277.582 216.018 273.304 213.943 269.395 215.305C265.482 216.663 263.411 220.936 264.769 224.849L287.769 291.112C289.046 294.706 292.455 297.11 296.266 297.11V297.11Z" fill="white"/>
</svg>
